# xmcd
#
# Track frame offsets:
#	150
#	16285
#	36157
#
# Disc length: 655 seconds
#
# Revision: 0
# Processed by: cddbd v1.5.2PL0 Copyright (c) Steve Scherf et al.
# Submitted via: audiograbber 1.83.01
#
DISCID=1a028d03
DTITLE=Cindy Berger - Herz unter Strom (LC 5680)
DYEAR=1992
DGENRE=Deutsch
TTITLE0=Herz unter Strom
TTITLE1=Laﬂ mir das Schweigen
TTITLE2=Mann oh Mann
EXTD=Silvertone Records
EXTT0=
EXTT1=
EXTT2=
PLAYORDER=
